<?xml version="1.0" encoding="utf-8"?>
<!-- Generator: Adobe Illustrator 23.0.0, SVG Export Plug-In . SVG Version: 6.00 Build 0)  -->
<svg version="1.1" id="Logo" xmlns="http://www.w3.org/2000/svg" xmlns:xlink="http://www.w3.org/1999/xlink" x="0px" y="0px"
	 viewBox="0 0 1190.5500488 841.8900146" style="enable-background:new 0 0 1190.5500488 841.8900146;" xml:space="preserve">
<style type="text/css">
	.st0{display:none;}
	.st1{display:inline;fill:#FE9500;}
	.st2{display:none;fill:#FFFFFF;}
	.st3{fill:#7D00AB;}
	.st4{fill:#FE9500;}
	.st5{display:inline;fill:#7D00AB;}
</style>
<g id="_x33_" class="st0">
	<path class="st1" d="M623.7564697,210.6092529c0-44.3226318-35.930542-80.2532349-80.2532349-80.2532349
		c-44.3226318,0-80.2532349,35.930603-80.2532349,80.2532349c0,11.8071289,2.5706787,23.0072632,7.1496582,33.1027832
		c0.0078125,0.0595093,0.0155029,0.1190186,0.0413818,0.1707764c2.9000244,6.4199829,4.4400024,13.7000122,4.4400024,21.1400146
		c0,25.9099731-19.4699707,47.4500122-45.0899658,51.7999878c0.0014648,0.0054321,0.0032349,0.0106201,0.0046997,0.0160522
		c-39.1182861,5.3619385-69.2600098,38.8936157-69.2600098,79.4846802c0,44.3226318,35.930542,80.2532349,80.2532349,80.2532349
		c44.3226318,0,80.2532349-35.930603,80.2532349-80.2532349c0-11.9628296-2.6367798-23.3036499-7.3302612-33.5023193
		l0.0090942,0.0015869c-2.8699951-6.3900146-4.460022-13.4400024-4.460022-20.8499756
		c0-26.25,20.0300293-48.0400391,46.1500244-51.9900513l-0.0021362-0.0048218
		C594.0844116,284.2250977,623.7564697,250.8856201,623.7564697,210.6092529z"/>
	<circle class="st1" cx="646.2175293" cy="396.3235474" r="80.2532349"/>
	<circle class="st1" cx="749.5390015" cy="210.6092529" r="80.2532349"/>
	<path class="st1" d="M1035.2207031,210.6092529c0-44.3226318-35.930542-80.2532349-80.2531738-80.2532349
		s-80.2532349,35.930603-80.2532349,80.2532349c0,11.8071289,2.5706787,23.0072632,7.1496582,33.1027832
		c0.0078125,0.0595093,0.0155029,0.1190186,0.0413818,0.1707764c2.9000244,6.4199829,4.4400024,13.7000122,4.4400024,21.1400146
		c0,25.9099731-19.4699707,47.4500122-45.0899658,51.7999878c0.0014648,0.0053711,0.0032349,0.0106812,0.0046997,0.0160522
		C802.1417847,322.2007446,772,355.7324219,772,396.3235474c0,44.3226318,35.930603,80.2532349,80.2532349,80.2532349
		c44.3226929,0,80.2532349-35.930603,80.2532349-80.2532349c0-11.9628296-2.6367798-23.3036499-7.3302612-33.5023193
		l0.0091553,0.0015869c-2.8699951-6.3900146-4.460022-13.4400024-4.460022-20.8499756
		c0-26.25,20.0300293-48.0400391,46.1500244-51.9900513l-0.0021362-0.0048218
		C1005.5487061,284.2250977,1035.2207031,250.8856201,1035.2207031,210.6092529z"/>
	
		<ellipse transform="matrix(0.7071068 -0.7071068 0.7071068 0.7071068 29.544775 863.9744873)" class="st1" cx="1057.6818848" cy="396.3235474" rx="80.2532654" ry="80.2532349"/>
</g>
<g id="_x32_">
	<path class="st2" d="M647.1353149,188.2741852c0,0-5.7074585,26.6136932,1.1398315,59.6968536
		s63.0003052,5.720459,63.0003052,5.720459l39.7354126,1.9034882l-36.4042969,31.8834991l5.7105103,59.2462158l4.8191528,4.2828674
		l-3.1807251,10.2703857c0,0,25.9196777,16.8922424,42.9509277,21.8699951
		c17.03125,4.9777222,49.1576538-46.8924561,49.1576538-46.8924561l74.7120972-130.8651276l-19.2728882-42.1147766
		l-86.3709717-24.2695313L647.1353149,188.2741852z"/>
	<path class="st2" d="M542.7872925,184.1692352c0,0,6.0454102,33.2133942-0.949646,66.1769714
		s-99.4332275-17.9926453-99.4332275-17.9926453l-2.0484924,57.6138153l42.7622681,88.5972595l118.8124695,186.1566162
		l16.3879395-74.513855l36.6366577-31.0393066c0,0,39.2348022,13.5713196,68.0031128,43.6864319
		c28.7682495,30.1151428-25.0046387,43.1742859-25.0046387,43.1742859l-34.3122559,109.0821533l-61.4547119,33.5440674
		l-63.5032349-22.2773438l-67.486084-180.460083L345.566925,298.8994446l-114.2095642-94.2228851l53.5357361-65.6705017
		l144.1895752,4.9966736L542.7872925,184.1692352z"/>
	<path class="st3" d="M773.5006714,627.1630249c0,98.4232788-79.7911987,178.2144775-178.2144775,178.2144775
		c-98.4455261,0-178.2367554-79.7911987-178.2367554-178.2144775c0-26.2713013,5.6850891-51.2102661,15.9004517-73.6619873
		c0.0222473-0.0887451,0.0222473-0.1554565,0.0666809-0.2219849c6.440094-14.2572632,9.8601074-30.4241943,9.8601074-46.9465027
		c0-57.5172729-43.2156677-105.3519897-100.0888367-115.0343933c-0.0222168,0-0.0222168,0-0.0444641,0
		c-86.8753815-11.9031372-153.7863312-86.4091187-153.7863312-176.5711823
		c0-98.4232788,79.791214-178.2145081,178.2144928-178.2145081c90.7173767,0,165.6673889,67.8213959,176.7931824,155.5184631
		c0.1332397,0.9328156,0.2443848,1.8877106,0.3331909,2.8203888c0.0222168,0.0222321,0.0222168,0.0666809,0.0222168,0.0887756
		c-0.0222168,3.220108-1.3325195,6.1515045-3.4643555,8.2834625c-2.131958,2.1318207-5.0855713,3.4643402-8.3722534,3.4643402
		h-83.3000183c-5.2631226,0-9.7268372-3.4643402-11.2591553-8.2389984h-0.0220947
		c-8.0835266-31.0236816-36.2869873-53.8972931-69.8201294-53.8972931c-39.8623352,0-72.1741028,32.3117523-72.1741028,72.1740875
		c0,39.8399811,32.3117676,72.174118,72.1741028,72.174118c6.1958313,0,12.2140808-0.7773438,17.9434814-2.2652283
		c0.0222473,0,0.0444641-0.0222168,0.0667114-0.0222168c0-0.0222168,0.0444336,0,0.0444336,0
		c0.1553345-0.0444641,0.2885742-0.0887756,0.4440613-0.1109924v-0.0222473c0.0666809,0,0.1554565-0.0222168,0.2221375-0.0444641
		c0.0888062-0.0222168,0.1775818-0.0443115,0.2442627-0.0665283c1.9542542-0.4664307,3.9973145-0.3997192,5.8850098,0.1109924
		c2.9312744,0.8216553,5.5296326,2.7536926,7.1062622,5.6184082l0.1999512,0.3554077l5.596283,10.1265564l35.2431641,63.7575378
		c0.0222473,0.0220947,0.0222473,0.0220947,0.0222473,0.044342l4.6190186,8.3722229l55.7407227,100.8660583l56.4512024,102.1540833
		l3.197876,5.7961426c0,0.0222168,0,0.0222168,0,0.0222168c0.9104614,1.6655273,1.4213257,3.5755005,1.4213257,5.5963135
		c0,2.7092285-0.9105835,5.1743774-2.4207153,7.1506958c-0.0887451,0.111145-0.1776733,0.1999512-0.2442017,0.3109741h-0.0222778
		c0,0.0222168-0.0222168,0.0222168-0.0222168,0.0444336c-6.706543,8.0612793-10.748291,18.4543457-10.748291,29.7579956
		c0,25.7382813,20.8748779,46.6355591,46.6355591,46.6355591c25.7605591,0,46.6355591-20.8972778,46.6355591-46.6355591
		c0-9.4603882-2.8203735-18.2545776-7.6393433-25.6052246c-0.0889282-0.1110229-0.1776733-0.2220459-0.222168-0.3331909
		c-1.1991577-1.8208618-1.8875732-3.9972534-1.8875732-6.3512573c0-1.6210938,0.3330078-3.1534424,0.9104614-4.574707v-0.0222778
		l0.3109131-0.5328979l0.7772217-1.4213257c0-0.0220947,0-0.0220947,0.0222168-0.0220947l53.2755737-96.3580017l0.111145-0.2442627
		h0.0222168c0.0665894-0.1554565,0.1332397-0.2886963,0.2220459-0.421936
		c0.9993286-1.710022,2.4205322-3.1535645,4.1305542-4.1750183v-0.0222168c0.0222168,0,0.0222168,0,0.0222168,0
		c1.6210938-0.9771423,3.5087891-1.5545654,5.5296021-1.6212463c2.664917-0.1109924,5.1521606,0.6885681,7.1508789,2.0653992
		c0.0220947,0.0220947,0.0665283,0.044342,0.0888062,0.0665588c0.1109619,0.0887756,0.1998901,0.1777039,0.3109131,0.2442627
		v0.0222168c0.0443115,0.0222473,0.1110229,0.0444641,0.1554565,0.0889282
		c0.0665283,0.0443115,0.1332397,0.1109924,0.1997681,0.1775513
		C747.0515747,520.0122681,773.5006714,570.5120239,773.5006714,627.1630249z"/>
	<path class="st3" d="M1001.5929565,214.7269745c0,98.4455109-79.7911987,178.2367401-178.2144775,178.2367401
		c-20.4974365,0-40.1509399-3.4421387-58.4720459-9.8157654c-1.2435913-0.4440613-2.4872437-0.8882141-3.730957-1.3546448
		c-0.0220947,0-0.0443115-0.0222168-0.0665894-0.0222168c-0.1109619-0.0665588-0.2219849-0.1332397-0.3331299-0.1997986
		c-0.0220947,0-0.0220947,0-0.0220947-0.0222168c-3.1757813-1.9765015-5.3520508-5.4630737-5.5075684-9.5048523
		c-0.0443115-1.1769104,0.0667114-2.3095093,0.3554077-3.3754272c0-0.0222168,0-0.0222168,0-0.0222168l2.7315063-4.9078979
		l62.6692505-113.4132843c0.0444336-0.0887756,0.0889282-0.1775665,0.1332397-0.2442474
		c0.0666504-0.1554718,0.1333618-0.2887115,0.222168-0.4219513c0-0.0222321,0.0222168-0.0222321,0.0222168-0.0443268
		c0.9993286-1.6877747,2.4205322-3.1090851,4.1082764-4.1306763v-0.0222321c0.0222778,0,0.0222778,0,0.0222778,0
		c0.9326782-0.5551758,1.9320068-0.9769897,2.9979248-1.2436066v-0.0220947c0.0444336,0,0.0889282-0.0222321,0.1332397-0.0222321
		c0.5773926-0.088913,1.1548462-0.1776886,1.7322388-0.2886963c13.102417-2.7537079,22.9403076-14.3682709,22.9403076-28.2700043
		c0-15.9450378-12.9247437-28.8696442-28.8696289-28.8696442c-10.4375,0-19.5647583,5.5296326-24.6503296,13.8129578v0.0222321
		c-0.0665283,0.0887756-0.1110229,0.1776886-0.1554565,0.2664642c-0.0443115,0.0887909-0.0888062,0.1777039-0.1332397,0.2664795
		h-0.0443115c-0.4664307,0.7772064-1.0438232,1.5100861-1.6878052,2.1540527
		c-2.131958,2.1319733-5.0855713,3.4644928-8.3722534,3.4644928h-123.961792v-0.0222321h-7.3284302
		c-5.2631226,0-9.7268677-3.4643402-11.2591553-8.2389984c-0.3552856-1.1325989-0.5551758-2.3317413-0.5551758-3.59758
		c0-0.1999359,0-0.3775024,0.0222168-0.555191c0-0.0222321,0.0222168-0.0444641,0.0222168-0.0444641
		c0.0444336-0.5995026,0.1332397-1.1769257,0.1997681-1.7765656c0-0.0222321,0.0222778-0.0444489,0.0222778-0.0444489
		c10.9261475-87.9190826,85.942688-155.9403992,176.8154297-155.9403992
		C921.8017578,36.5124741,1001.5929565,116.3036957,1001.5929565,214.7269745z"/>
</g>
<g id="_x31_">
	<path class="st4" d="M667.6450195,464.2399597c-14.4013062-6.4187622-29.8170776-10.9729004-45.9224854-13.3594055
		c-0.111145-0.0222168-0.1998901-0.0222168-0.3109131-0.0444641
		c-57.8502808-8.9050598-102.1763306-57.2284241-102.1763306-115.4118652c0-16.1448364,3.3977661-31.5123291,9.5491333-45.4807434
		c0.1110229-0.2886963,0.222168-0.5551758,0.3554077-0.8216553c7.4984131-16.2315979,12.6069946-33.7692719,14.8887329-52.1886597
		c0.8197632-6.6166687-4.3701782-12.4572296-11.0374146-12.4572296h-83.7991028
		c-5.1834412,0-9.6357727,3.598526-10.8094482,8.6473846c-3.2213135,13.8561859-10.4303284,26.1700134-20.3500671,35.6806946
		c-3.650177,3.4994507-4.5378418,8.9854431-2.0942688,13.4125366l5.8953247,10.6804199l40.1953735,72.7514954
		l55.7850037,100.9327393l56.762146,102.7315369v0.0222168l2.9639282,5.3538208
		c2.2050171,3.9830933,6.6299438,6.3080444,11.131897,5.6300659c2.2981567-0.3461914,4.651062-0.524292,7.0456543-0.524292
		c4.0203857,0,7.9152222,0.5093994,11.6334229,1.4641724c4.8771362,1.2525635,9.9747925-0.9794312,12.409668-5.3869019
		l53.0900269-96.0986023C676.000061,474.0724182,673.59375,466.8914795,667.6450195,464.2399597z"/>
	<path class="st4" d="M801.4260254,232.996994c-0.7543335-0.9969177-1.4450684-2.0442657-2.0667725-3.135788
		c-1.9284058-3.3857422-5.6135254-5.3852692-9.5098877-5.3852692H657.586792
		c-6.6828613,0-11.8596802,5.8644104-11.0341797,12.4960022c6.5044556,52.2513885,35.6160278,97.4754181,77.2546387,125.5773468
		c5.4058838,3.648407,12.7866211,1.8634338,15.9414063-3.844696l62.6994629-113.4441833
		C804.614624,241.3402252,804.1282959,236.5688324,801.4260254,232.996994z"/>
</g>
<g id="text_2" class="st0">
	<path class="st5" d="M82.640625,670.4238281H59.1030273c-1.0014648,0-1.7290039,0.2275391-2.1821289,0.6796875
		c-0.4536133,0.4541016-0.6796875,1.1806641-0.6796875,2.1826172v45.0712891c0,1.5273438,1.4311523,2.2900391,4.2929688,2.2900391
		h2.4321289c2.8618164,0,4.2924805-0.7626953,4.2924805-2.2900391v-16.5976563h14.8808594
		c0.7626953,0,1.3115234-0.2861328,1.6455078-0.8583984c0.3330078-0.5722656,0.5009766-1.4775391,0.5009766-2.71875v-2.2177734
		c0-1.2392578-0.1679688-2.1464844-0.5009766-2.71875c-0.3339844-0.5722656-0.8828125-0.8583984-1.6455078-0.8583984H67.2587891
		v-12.5917969H82.640625c0.762207,0,1.3110352-0.2861328,1.6455078-0.8583984
		c0.3330078-0.5722656,0.5004883-1.4775391,0.5004883-2.71875v-2.2177734c0-1.2392578-0.1674805-2.1455078-0.5004883-2.7177734
		C83.9516602,670.7099609,83.402832,670.4238281,82.640625,670.4238281z"/>
	<path class="st5" d="M105.0327148,682.5146484c-5.6762695,0-9.9926758,1.6455078-12.9492188,4.9365234
		c-2.9580078,3.2910156-4.4355469,8.0605469-4.4355469,14.3085938c0,6.2490234,1.4775391,11.0302734,4.4355469,14.3447266
		c2.956543,3.3154297,7.2729492,4.9716797,12.9492188,4.9716797c5.675293,0,9.9799805-1.65625,12.9135742-4.9716797
		c2.9331055-3.3144531,4.3994141-8.0957031,4.3994141-14.3447266c0-6.2480469-1.4663086-11.0175781-4.3994141-14.3085938
		C115.0126953,684.1601563,110.7080078,682.5146484,105.0327148,682.5146484z M110.0048828,709.9511719
		c-1.0732422,1.8369141-2.730957,2.7548828-4.972168,2.7548828c-4.4355469,0-6.6533203-3.6494141-6.6533203-10.9462891
		c0-3.6240234,0.5473633-6.3427734,1.6455078-8.15625c1.0961914-1.8115234,2.7651367-2.7177734,5.0078125-2.7177734
		c2.2412109,0,3.8989258,0.90625,4.972168,2.7177734c1.0732422,1.8134766,1.6098633,4.5322266,1.6098633,8.15625
		C111.6147461,705.3847656,111.078125,708.1162109,110.0048828,709.9511719z"/>
	<path class="st5" d="M147.5991211,682.5146484c-1.8598633,0-3.3979492,0.4902344-4.6142578,1.4667969
		c-1.2163086,0.9785156-2.2783203,2.3017578-3.1835938,3.9707031c-0.0483398-0.2861328-0.1552734-0.8105469-0.3222656-1.5742188
		c-0.1674805-0.7617188-0.4179688-1.4667969-0.7509766-2.1103516c-0.3339844-0.6435547-0.9301758-0.9658203-1.7885742-0.9658203
		c-1.4790039,0-3.1835938,0.1914063-5.1152344,0.5722656c-1.9316406,0.3828125-2.8974609,0.9550781-2.8974609,1.7167969
		c0,0.3349609,0.0712891,0.8349609,0.2148438,1.5029297c0.1899414,1.3837891,0.3452148,2.6357422,0.4648438,3.7558594
		c0.1186523,1.1210938,0.1787109,2.7304688,0.1787109,4.8291016v22.6787109c0,1.5273438,1.4311523,2.2900391,4.2924805,2.2900391
		h2.003418c2.8618164,0,4.2924805-0.7626953,4.2924805-2.2900391v-22.9648438
		c0.5722656-0.9052734,1.347168-1.7285156,2.3251953-2.46875c0.9770508-0.7382813,2.1103516-1.1083984,3.3979492-1.1083984
		c0.5244141,0,1.1450195,0.0957031,1.8603516,0.2861328c0.715332,0.1914063,1.2163086,0.2861328,1.5024414,0.2861328
		c0.6191406,0,1.1445313-0.7509766,1.5737305-2.2539063c0.4291992-1.5019531,0.644043-2.7539063,0.644043-3.7558594
		c0-1.2871094-0.2749023-2.2529297-0.8227539-2.8974609C150.3056641,682.8369141,149.2202148,682.5146484,147.5991211,682.5146484z"
		/>
	<path class="st5" d="M205.0473633,702.1171875c-0.6206055-1.5253906-1.4077148-2.9208984-2.3613281-4.1845703
		c-0.9545898-1.2636719-1.8842773-2.0625-2.7900391-2.3974609v-0.2861328
		c2.5756836-0.953125,4.6147461-2.4199219,6.1171875-4.3994141c1.5019531-1.9785156,2.253418-4.3037109,2.253418-6.9755859
		c0-8.9658203-5.9379883-13.4501953-17.8139648-13.4501953h-13.9506836c-1.0019531,0-1.7294922,0.2275391-2.1821289,0.6796875
		c-0.4541016,0.4541016-0.6796875,1.1806641-0.6796875,2.1826172v45.0712891c0,1.5273438,1.4306641,2.2900391,4.2924805,2.2900391
		h2.4326172c2.8613281,0,4.2924805-0.7626953,4.2924805-2.2900391v-17.4560547h2.7900391
		c2.1464844,0,3.6845703,0.3222656,4.6142578,0.9658203c0.9301758,0.6435547,1.7998047,1.7529297,2.6113281,3.3261719
		l5.6518555,13.9511719c0.4291992,1.0019531,1.8120117,1.5029297,4.1494141,1.5029297h2.9335938
		c1.4306641,0,2.5039063-0.1328125,3.2192383-0.3935547c0.715332-0.2617188,1.0732422-0.6083984,1.0732422-1.0380859
		c0-0.2861328-0.1196289-0.7382813-0.3579102-1.359375L205.0473633,702.1171875z M195.3173828,689.5976563
		c-1.0976563,1.1923828-2.3852539,1.7880859-3.8632813,1.7880859h-6.7963867v-11.5898438h6.2954102
		c1.8603516,0,3.3271484,0.4902344,4.3999023,1.4667969c1.0732422,0.9785156,1.6098633,2.3017578,1.6098633,3.9707031
		C196.9628906,686.9501953,196.4140625,688.40625,195.3173828,689.5976563z"/>
	<path class="st5" d="M246.7192383,703.5126953c0.9770508-1.1201172,1.4667969-1.9677734,1.4667969-2.5400391
		c0-5.4375-1.2519531-9.8730469-3.7558594-13.3066406c-2.5039063-3.4345703-6.4033203-5.1513672-11.6972656-5.1513672
		c-5.4375,0-9.6938477,1.5742188-12.7705078,4.7216797c-3.0761719,3.1484375-4.6142578,8.0849609-4.6142578,14.8095703
		c0,5.9628906,1.5380859,10.6240234,4.6142578,13.9863281c3.0766602,3.3623047,7.7626953,5.0439453,14.0581055,5.0439453
		c1.5258789,0,3.3144531-0.1914063,5.3657227-0.5722656c2.050293-0.3808594,3.8154297-0.9658203,5.2944336-1.7529297
		c1.4775391-0.7871094,2.2177734-1.7285156,2.2177734-2.8261719c0-0.4755859-0.2036133-1.1552734-0.6083984-2.0380859
		c-0.4057617-0.8828125-0.90625-1.6699219-1.5024414-2.3613281c-0.5966797-0.6904297-1.1333008-1.0371094-1.609375-1.0371094
		c-0.2861328,0-0.8115234,0.1904297-1.5742188,0.5722656c-1.1928711,0.4775391-2.3374023,0.8701172-3.434082,1.1806641
		c-1.0976563,0.3105469-2.3139648,0.4648438-3.6484375,0.4648438c-2.4804688,0-4.4121094-0.5722656-5.7949219-1.7177734
		c-1.3837891-1.1445313-2.1943359-3.0761719-2.4326172-5.7949219h18.2436523
		C245.0136719,705.1933594,245.7412109,704.6337891,246.7192383,703.5126953z M226.2939453,698.1113281
		c0.7626953-4.8173828,2.9086914-7.2255859,6.4389648-7.2255859c1.7167969,0,3.0048828,0.65625,3.8632813,1.9667969
		c0.8583984,1.3125,1.2875977,3.0654297,1.2875977,5.2587891H226.2939453z"/>
	<path class="st5" d="M282.418457,684.7685547c-2.027832-1.5029297-4.3286133-2.2539063-6.9042969-2.2539063
		c-2.1459961,0-4.0664063,0.5009766-5.7587891,1.5029297c-1.6938477,1.0009766-2.9692383,2.2890625-3.8276367,3.8632813
		c-0.0478516-0.2861328-0.1552734-0.7988281-0.3217773-1.5380859c-0.1679688-0.7392578-0.418457-1.4316406-0.7514648-2.0751953
		c-0.3339844-0.6435547-0.9301758-0.9658203-1.7885742-0.9658203c-1.4790039,0-3.1835938,0.1914063-5.1152344,0.5722656
		c-1.9316406,0.3828125-2.8974609,0.9550781-2.8974609,1.7167969c0,0.3349609,0.0717773,0.8349609,0.2148438,1.5029297
		c0.1899414,1.3837891,0.3452148,2.6357422,0.4648438,3.7558594c0.1186523,1.1210938,0.1787109,2.7304688,0.1787109,4.8291016
		v37.2734375c0,1.5263672,1.4311523,2.2890625,4.2924805,2.2890625h2.003418c2.8618164,0,4.2924805-0.7626953,4.2924805-2.2890625
		v-14.09375c2.050293,1.4785156,4.4824219,2.2177734,7.2973633,2.2177734c4.7685547,0,8.4780273-1.7285156,11.125-5.1865234
		s3.9707031-8.1435547,3.9707031-14.0585938c0-4.0527344-0.5727539-7.5351563-1.7172852-10.4453125
		C286.03125,688.4775391,284.4448242,686.2705078,282.418457,684.7685547z M271.5078125,712.7060547
		c-1.7167969,0-3.3867188-0.453125-5.0078125-1.359375v-15.9541016c1.6210938-2.8134766,3.5771484-4.2207031,5.8666992-4.2207031
		c3.8632813,0,5.7949219,3.5537109,5.7949219,10.6591797C278.1616211,709.0820313,275.9438477,712.7060547,271.5078125,712.7060547z
		"/>
	<path class="st5" d="M314.1469727,682.5146484c-1.8598633,0-3.3979492,0.4902344-4.6142578,1.4667969
		c-1.2163086,0.9785156-2.2783203,2.3017578-3.1835938,3.9707031c-0.0483398-0.2861328-0.1552734-0.8105469-0.3222656-1.5742188
		c-0.1674805-0.7617188-0.4179688-1.4667969-0.7509766-2.1103516c-0.3339844-0.6435547-0.9301758-0.9658203-1.7885742-0.9658203
		c-1.4790039,0-3.1835938,0.1914063-5.1152344,0.5722656c-1.9316406,0.3828125-2.8974609,0.9550781-2.8974609,1.7167969
		c0,0.3349609,0.0712891,0.8349609,0.2148438,1.5029297c0.1899414,1.3837891,0.3452148,2.6357422,0.4648438,3.7558594
		c0.1186523,1.1210938,0.1787109,2.7304688,0.1787109,4.8291016v22.6787109c0,1.5273438,1.4311523,2.2900391,4.2924805,2.2900391
		h2.003418c2.8618164,0,4.2924805-0.7626953,4.2924805-2.2900391v-22.9648438
		c0.5722656-0.9052734,1.347168-1.7285156,2.3251953-2.46875c0.9770508-0.7382813,2.1103516-1.1083984,3.3979492-1.1083984
		c0.5244141,0,1.1450195,0.0957031,1.8603516,0.2861328c0.715332,0.1914063,1.2163086,0.2861328,1.5024414,0.2861328
		c0.6191406,0,1.1445313-0.7509766,1.5737305-2.2539063c0.4291992-1.5019531,0.644043-2.7539063,0.644043-3.7558594
		c0-1.2871094-0.2749023-2.2529297-0.8227539-2.8974609C316.8535156,682.8369141,315.7680664,682.5146484,314.1469727,682.5146484z"
		/>
	<path class="st5" d="M337.0415039,682.5146484c-5.6762695,0-9.9926758,1.6455078-12.9492188,4.9365234
		c-2.9580078,3.2910156-4.4355469,8.0605469-4.4355469,14.3085938c0,6.2490234,1.4775391,11.0302734,4.4355469,14.3447266
		c2.956543,3.3154297,7.2729492,4.9716797,12.9492188,4.9716797c5.675293,0,9.9799805-1.65625,12.9135742-4.9716797
		c2.9331055-3.3144531,4.3994141-8.0957031,4.3994141-14.3447266c0-6.2480469-1.4663086-11.0175781-4.3994141-14.3085938
		C347.0214844,684.1601563,342.7167969,682.5146484,337.0415039,682.5146484z M342.0136719,709.9511719
		c-1.0732422,1.8369141-2.730957,2.7548828-4.972168,2.7548828c-4.4355469,0-6.6533203-3.6494141-6.6533203-10.9462891
		c0-3.6240234,0.5473633-6.3427734,1.6455078-8.15625c1.0961914-1.8115234,2.7651367-2.7177734,5.0078125-2.7177734
		c2.2412109,0,3.8989258,0.90625,4.972168,2.7177734c1.0732422,1.8134766,1.6098633,4.5322266,1.6098633,8.15625
		C343.6235352,705.3847656,343.0869141,708.1162109,342.0136719,709.9511719z"/>
	<path class="st5" d="M393.5229492,712.9199219c-0.1196289-1.1445313-0.1787109-2.8134766-0.1787109-5.0078125v-39.0615234
		c0-1.5263672-1.4306641-2.2900391-4.2924805-2.2900391h-2.003418c-2.8613281,0-4.2924805,0.7636719-4.2924805,2.2900391v15.8818359
		c-2.0512695-1.4775391-4.4833984-2.2177734-7.2973633-2.2177734c-4.7695313,0-8.4775391,1.7294922-11.1245117,5.1875
		c-2.6474609,3.4580078-3.9707031,8.1445313-3.9707031,14.0576172c0,4.0546875,0.5722656,7.5361328,1.7167969,10.4453125
		c1.1450195,2.9101563,2.7299805,5.1152344,4.7578125,6.6171875c2.0263672,1.5029297,4.328125,2.2539063,6.9038086,2.2539063
		c2.1459961,0,4.0654297-0.5009766,5.7592773-1.5019531c1.6923828-1.0019531,2.96875-2.2900391,3.8271484-3.8632813
		c0.0473633,0.2861328,0.1542969,0.8222656,0.3222656,1.609375c0.1665039,0.7871094,0.4169922,1.5273438,0.7509766,2.2177734
		c0.3330078,0.6923828,0.9301758,1.0371094,1.7885742,1.0371094c1.4780273,0,3.1835938-0.1894531,5.1152344-0.5722656
		c1.9316406-0.3808594,2.8974609-0.953125,2.8974609-1.7167969c0-0.4296875-0.0712891-0.953125-0.2143555-1.5742188
		C393.796875,715.3291016,393.6416016,714.0654297,393.5229492,712.9199219z M382.7558594,708.1982422
		c-1.6220703,2.8154297-3.5771484,4.2216797-5.8662109,4.2216797c-3.8632813,0-5.7949219-3.5527344-5.7949219-10.6601563
		c0-7.2490234,2.2177734-10.8740234,6.6533203-10.8740234c1.7167969,0,3.3857422,0.453125,5.0078125,1.359375V708.1982422z"/>
	<path class="st5" d="M433.3710938,712.9199219c-0.1196289-1.1445313-0.1787109-2.8134766-0.1787109-5.0078125v-22.6787109
		c0-1.5253906-1.4311523-2.2890625-4.2924805-2.2890625h-2.003418c-2.8618164,0-4.2924805,0.7636719-4.2924805,2.2890625v22.9648438
		c-0.5722656,1.0976563-1.3481445,2.0634766-2.3251953,2.8974609c-0.9780273,0.8349609-2.1103516,1.2519531-3.3979492,1.2519531
		c-1.5273438,0-2.6240234-0.3681641-3.2910156-1.1083984c-0.668457-0.7392578-1.0019531-1.8476563-1.0019531-3.3271484v-22.6787109
		c0-1.5253906-1.4306641-2.2890625-4.2924805-2.2890625h-2.0029297c-2.8618164,0-4.2924805,0.7636719-4.2924805,2.2890625
		v24.2529297c0,3.9589844,0.8583984,6.8808594,2.5751953,8.7636719c1.7172852,1.8847656,4.3642578,2.8261719,7.9414063,2.8261719
		c2.1933594,0,4.2319336-0.5253906,6.1166992-1.5742188c1.8837891-1.0478516,3.3984375-2.3359375,4.5429688-3.8632813
		c0.046875,0.2861328,0.1542969,0.8349609,0.3222656,1.6455078c0.1665039,0.8115234,0.4165039,1.5634766,0.7509766,2.2539063
		c0.3330078,0.6923828,0.9301758,1.0371094,1.7885742,1.0371094c1.4775391,0,3.1835938-0.1894531,5.1152344-0.5722656
		c1.9316406-0.3808594,2.8974609-0.953125,2.8974609-1.7167969c0-0.4296875-0.0712891-0.953125-0.2143555-1.5742188
		C433.6450195,715.3291016,433.4897461,714.0654297,433.3710938,712.9199219z"/>
	<path class="st5" d="M469.0703125,711.6679688c-0.5966797-0.6904297-1.1333008-1.0371094-1.6098633-1.0371094
		c-0.0961914,0-0.5253906,0.1435547-1.2875977,0.4296875c-0.190918,0.0957031-0.6079102,0.2626953-1.2519531,0.5009766
		c-0.644043,0.2392578-1.4555664,0.4892578-2.4326172,0.7509766c-0.9780273,0.2626953-2.0869141,0.3935547-3.3266602,0.3935547
		c-2.6713867,0-4.6142578-0.8945313-5.8305664-2.6835938c-1.2163086-1.7880859-1.8242188-4.5419922-1.8242188-8.2626953
		c0-3.7197266,0.6435547-6.4619141,1.9316406-8.2275391c1.2875977-1.7636719,3.3378906-2.6464844,6.1523438-2.6464844
		c1.3349609,0,2.4682617,0.1425781,3.3984375,0.4287109s1.8710938,0.6689453,2.8256836,1.1445313
		c0.6674805,0.3349609,1.0966797,0.5009766,1.2880859,0.5009766c0.5722656,0,1.3466797-0.7392578,2.3251953-2.2177734
		c0.9770508-1.4775391,1.4663086-2.5751953,1.4663086-3.2910156c0-1.5253906-1.2519531-2.7294922-3.7558594-3.6123047
		s-5.2114258-1.3242188-8.1201172-1.3242188c-6.2958984,0-10.9345703,1.6347656-13.9150391,4.9013672
		c-2.980957,3.2666016-4.4711914,8.1445313-4.4711914,14.6298828c0,6.4384766,1.4775391,11.2207031,4.4355469,14.3447266
		c2.956543,3.1240234,7.4873047,4.6855469,13.5932617,4.6855469c1.1445313,0,2.7182617-0.1552734,4.7216797-0.4648438
		c2.0029297-0.3095703,3.8027344-0.8466797,5.4013672-1.609375c1.597168-0.7626953,2.3964844-1.7412109,2.3964844-2.9335938
		c0-0.4765625-0.203125-1.15625-0.6079102-2.0390625C470.1669922,713.1474609,469.6660156,712.3603516,469.0703125,711.6679688z"/>
	<path class="st5" d="M494.0732422,713.4931641c-0.3344727-0.7158203-0.715332-1.0732422-1.1450195-1.0732422
		c-0.2387695,0-0.5610352,0.0478516-0.9658203,0.1425781c-0.4057617,0.0966797-0.7275391,0.1435547-0.9658203,0.1435547
		c-0.90625,0-1.5625-0.2382813-1.9672852-0.7158203c-0.4057617-0.4765625-0.6079102-1.2626953-0.6079102-2.3603516v-18.171875
		h3.5053711c0.7626953,0,1.3115234-0.2861328,1.6455078-0.8583984c0.3330078-0.5732422,0.5009766-1.4785156,0.5009766-2.71875
		v-1.2167969c0-1.2392578-0.1679688-2.1464844-0.5009766-2.71875c-0.3339844-0.5722656-0.8828125-0.8583984-1.6455078-0.8583984
		h-3.5053711v-6.7958984c0-1.5263672-1.1928711-2.2900391-3.5771484-2.2900391h-2.2177734
		c-2.3374023,0-3.6254883,0.7636719-3.8632813,2.2900391l-0.9301758,6.7958984h-1.1445313
		c-0.7636719,0-1.3125,0.2861328-1.6455078,0.8583984c-0.3344727,0.5722656-0.5009766,1.4794922-0.5009766,2.71875v1.2167969
		c0,1.2402344,0.1665039,2.1455078,0.5009766,2.71875c0.3330078,0.5722656,0.8818359,0.8583984,1.6455078,0.8583984h1.1445313
		v18.0283203c0,7.7265625,3.480957,11.5898438,10.4453125,11.5898438c4.5786133,0,6.8681641-1.1679688,6.8681641-3.5058594
		c0-0.2861328-0.0961914-0.8583984-0.2866211-1.7167969C494.6689453,714.9951172,494.40625,714.2080078,494.0732422,713.4931641z"/>
	<path class="st5" d="M507.3081055,682.9443359h-2.0029297c-2.8618164,0-4.2924805,0.7636719-4.2924805,2.2890625v33.1240234
		c0,1.5273438,1.4306641,2.2900391,4.2924805,2.2900391h2.0029297c2.8618164,0,4.2924805-0.7626953,4.2924805-2.2900391v-33.1240234
		C511.6005859,683.7080078,510.1699219,682.9443359,507.3081055,682.9443359z"/>
	<path class="st5" d="M506.3066406,669.2792969c-3.5302734,0-5.2939453,0.7636719-5.2939453,2.2900391v5.5800781
		c0,1.5263672,1.7636719,2.2890625,5.2939453,2.2890625c3.5292969,0,5.2939453-0.7626953,5.2939453-2.2890625v-5.5800781
		C511.6005859,670.0429688,509.8359375,669.2792969,506.3066406,669.2792969z"/>
	<path class="st5" d="M545.5830078,682.9443359h-1.7885742c-2.3374023,0-3.6728516,0.5009766-4.0063477,1.5019531
		L536.2109375,695.75c-1.3354492,4.1025391-2.2177734,7.8701172-2.6469727,11.3037109h-0.2861328
		c-0.5253906-3.7197266-1.4072266-7.4873047-2.6469727-11.3037109l-3.5771484-11.3037109
		c-0.3344727-1.0009766-1.6699219-1.5019531-4.0063477-1.5019531h-2.3608398c-2.909668,0-4.3642578,0.5253906-4.3642578,1.5732422
		c0,0.1914063,0.0952148,0.6210938,0.2861328,1.2880859l11.3754883,33.3388672
		c0.3808594,1.0019531,1.7167969,1.5029297,4.0063477,1.5029297h2.2890625c2.3364258,0,3.6723633-0.5009766,4.0063477-1.5029297
		l11.3754883-33.3388672c0.1430664-0.5244141,0.2148438-0.953125,0.2148438-1.2880859
		C549.8759766,683.4697266,548.4448242,682.9443359,545.5830078,682.9443359z"/>
	<path class="st5" d="M584.1083984,703.5126953c0.9770508-1.1201172,1.4667969-1.9677734,1.4667969-2.5400391
		c0-5.4375-1.2519531-9.8730469-3.7558594-13.3066406c-2.5039063-3.4345703-6.4033203-5.1513672-11.6972656-5.1513672
		c-5.4375,0-9.6938477,1.5742188-12.7705078,4.7216797c-3.0761719,3.1484375-4.6142578,8.0849609-4.6142578,14.8095703
		c0,5.9628906,1.5380859,10.6240234,4.6142578,13.9863281c3.0766602,3.3623047,7.7626953,5.0439453,14.0581055,5.0439453
		c1.5258789,0,3.3144531-0.1914063,5.3657227-0.5722656c2.050293-0.3808594,3.8154297-0.9658203,5.2944336-1.7529297
		c1.4775391-0.7871094,2.2177734-1.7285156,2.2177734-2.8261719c0-0.4755859-0.2036133-1.1552734-0.6083984-2.0380859
		c-0.4057617-0.8828125-0.90625-1.6699219-1.5024414-2.3613281c-0.5966797-0.6904297-1.1333008-1.0371094-1.609375-1.0371094
		c-0.2861328,0-0.8115234,0.1904297-1.5742188,0.5722656c-1.1928711,0.4775391-2.3374023,0.8701172-3.434082,1.1806641
		c-1.0976563,0.3105469-2.3139648,0.4648438-3.6484375,0.4648438c-2.4804688,0-4.4121094-0.5722656-5.7949219-1.7177734
		c-1.3837891-1.1445313-2.1943359-3.0761719-2.4326172-5.7949219h18.2436523
		C582.402832,705.1933594,583.1303711,704.6337891,584.1083984,703.5126953z M563.6831055,698.1113281
		c0.7626953-4.8173828,2.9086914-7.2255859,6.4389648-7.2255859c1.7167969,0,3.0048828,0.65625,3.8632813,1.9667969
		c0.8583984,1.3125,1.2875977,3.0654297,1.2875977,5.2587891H563.6831055z"/>
	<path class="st5" d="M648.1728516,670.28125h-2.5039063c-2.8623047,0-4.2929688,0.7636719-4.2929688,2.2890625v17.6708984
		h-19.3164063v-17.6708984c0-1.5253906-1.4306641-2.2890625-4.2919922-2.2890625h-2.5039063
		c-2.8623047,0-4.2929688,0.7636719-4.2929688,2.2890625v45.7871094c0,1.5273438,1.4306641,2.2900391,4.2929688,2.2900391h2.5039063
		c2.8613281,0,4.2919922-0.7626953,4.2919922-2.2900391v-18.671875h19.3164063v18.671875
		c0,1.5273438,1.4306641,2.2900391,4.2929688,2.2900391h2.5039063c2.8613281,0,4.2919922-0.7626953,4.2919922-2.2900391v-45.7871094
		C652.4648438,671.0449219,651.0341797,670.28125,648.1728516,670.28125z"/>
	<path class="st5" d="M692.2773438,703.5126953c0.9775391-1.1201172,1.4667969-1.9677734,1.4667969-2.5400391
		c0-5.4375-1.2519531-9.8730469-3.7558594-13.3066406c-2.5039063-3.4345703-6.4033203-5.1513672-11.6972656-5.1513672
		c-5.4375,0-9.6943359,1.5742188-12.7705078,4.7216797c-3.0761719,3.1484375-4.6142578,8.0849609-4.6142578,14.8095703
		c0,5.9628906,1.5380859,10.6240234,4.6142578,13.9863281s7.7626953,5.0439453,14.0585938,5.0439453
		c1.5253906,0,3.3144531-0.1914063,5.3652344-0.5722656c2.0498047-0.3808594,3.8154297-0.9658203,5.2939453-1.7529297
		s2.2177734-1.7285156,2.2177734-2.8261719c0-0.4755859-0.203125-1.1552734-0.6074219-2.0380859
		c-0.40625-0.8828125-0.9072266-1.6699219-1.5029297-2.3613281c-0.5966797-0.6904297-1.1337891-1.0371094-1.609375-1.0371094
		c-0.2861328,0-0.8115234,0.1904297-1.5742188,0.5722656c-1.1923828,0.4775391-2.3369141,0.8701172-3.4335938,1.1806641
		c-1.0976563,0.3105469-2.3144531,0.4648438-3.6494141,0.4648438c-2.4804688,0-4.4121094-0.5722656-5.7949219-1.7177734
		c-1.3837891-1.1445313-2.1943359-3.0761719-2.4316406-5.7949219h18.2431641
		C690.5712891,705.1933594,691.2998047,704.6337891,692.2773438,703.5126953z M671.8525391,698.1113281
		c0.7617188-4.8173828,2.9082031-7.2255859,6.4384766-7.2255859c1.7167969,0,3.0048828,0.65625,3.8632813,1.9667969
		c0.8583984,1.3125,1.2880859,3.0654297,1.2880859,5.2587891H671.8525391z"/>
	<path class="st5" d="M730.7666016,712.9199219c-0.1201172-1.1445313-0.1787109-2.8134766-0.1787109-5.0078125v-13.4492188
		c0-3.7207031-1.2167969-6.6416016-3.6484375-8.7646484c-2.4326172-2.1210938-6.3447266-3.1835938-11.7333984-3.1835938
		c-2.5283203,0-4.8417969,0.2392578-6.9394531,0.7158203c-2.0996094,0.4775391-3.7451172,1.0976563-4.9365234,1.8603516
		c-1.1923828,0.7626953-1.7890625,1.5498047-1.7890625,2.3603516c0,0.5253906,0.2148438,1.2519531,0.6445313,2.1826172
		c0.4287109,0.9296875,0.9296875,1.7519531,1.5019531,2.4677734s1.0966797,1.0732422,1.5742188,1.0732422
		c0.1425781,0,0.6904297-0.2148438,1.6455078-0.6435547c0.953125-0.4296875,2.0390625-0.8105469,3.2548828-1.1455078
		c1.2167969-0.3330078,2.6347656-0.5,4.2568359-0.5c1.9550781,0,3.3740234,0.3339844,4.2568359,1.0009766
		c0.8818359,0.6689453,1.3232422,1.6933594,1.3232422,3.0761719v2.3613281c-8.1083984,0-13.5566406,1.2646484-16.3466797,3.7919922
		c-2.7910156,2.5283203-4.1855469,5.6992188-4.1855469,9.5146484c0,3.1484375,0.8457031,5.6767578,2.5400391,7.5839844
		c1.6923828,1.9082031,4.375,2.8613281,8.0478516,2.8613281c1.9550781,0,3.6962891-0.3574219,5.2226563-1.0732422
		c1.5263672-0.7148438,2.71875-1.4902344,3.5771484-2.3251953c0.8583984-0.8339844,1.4306641-1.5136719,1.7167969-2.0390625
		c0.0478516,0.2861328,0.1542969,0.8349609,0.3222656,1.6455078c0.1669922,0.8115234,0.4169922,1.5634766,0.7509766,2.2539063
		c0.3330078,0.6923828,0.9306641,1.0371094,1.7890625,1.0371094c1.4775391,0,3.1835938-0.1894531,5.1152344-0.5722656
		c1.9316406-0.3808594,2.8974609-0.953125,2.8974609-1.7167969c0-0.4296875-0.0712891-0.953125-0.2148438-1.5742188
		C731.0400391,715.3291016,730.8847656,714.0654297,730.7666016,712.9199219z M719.9990234,708.1982422
		c-0.5722656,1.2880859-1.4550781,2.3613281-2.6464844,3.2197266c-1.1933594,0.8583984-2.4570313,1.2880859-3.7919922,1.2880859
		c-1.1445313,0-2.0273438-0.2861328-2.6474609-0.8583984s-0.9296875-1.3349609-0.9296875-2.2900391
		c0-3.5283203,3.3378906-5.2939453,10.015625-5.2939453V708.1982422z"/>
	<path class="st5" d="M756.1992188,713.4931641c-0.3339844-0.7158203-0.7148438-1.0732422-1.1445313-1.0732422
		c-0.2392578,0-0.5615234,0.0478516-0.9658203,0.1425781c-0.4052734,0.0966797-0.7275391,0.1435547-0.9658203,0.1435547
		c-0.90625,0-1.5625-0.2382813-1.9677734-0.7158203c-0.4052734-0.4765625-0.6074219-1.2626953-0.6074219-2.3603516v-40.7792969
		c0-1.5263672-1.4306641-2.2900391-4.2929688-2.2900391h-2.0029297c-2.8613281,0-4.2929688,0.7636719-4.2929688,2.2900391
		v40.6357422c0,7.7265625,3.4814453,11.5898438,10.4453125,11.5898438c4.5791016,0,6.8681641-1.1679688,6.8681641-3.5058594
		c0-0.2861328-0.0957031-0.8583984-0.2861328-1.7167969C756.7949219,714.9951172,756.5322266,714.2080078,756.1992188,713.4931641z"
		/>
	<path class="st5" d="M778.4492188,713.4931641c-0.3339844-0.7158203-0.7158203-1.0732422-1.1445313-1.0732422
		c-0.2392578,0-0.5615234,0.0478516-0.9658203,0.1425781c-0.40625,0.0966797-0.7275391,0.1435547-0.9658203,0.1435547
		c-0.9072266,0-1.5634766-0.2382813-1.9677734-0.7158203c-0.4052734-0.4765625-0.6083984-1.2626953-0.6083984-2.3603516v-18.171875
		h3.5058594c0.7626953,0,1.3115234-0.2861328,1.6455078-0.8583984c0.3330078-0.5732422,0.5009766-1.4785156,0.5009766-2.71875
		v-1.2167969c0-1.2392578-0.1679688-2.1464844-0.5009766-2.71875c-0.3339844-0.5722656-0.8828125-0.8583984-1.6455078-0.8583984
		h-3.5058594v-6.7958984c0-1.5263672-1.1923828-2.2900391-3.5771484-2.2900391h-2.2177734
		c-2.3369141,0-3.625,0.7636719-3.8632813,2.2900391l-0.9296875,6.7958984h-1.1445313
		c-0.7636719,0-1.3125,0.2861328-1.6455078,0.8583984c-0.3339844,0.5722656-0.5009766,1.4794922-0.5009766,2.71875v1.2167969
		c0,1.2402344,0.1669922,2.1455078,0.5009766,2.71875c0.3330078,0.5722656,0.8818359,0.8583984,1.6455078,0.8583984h1.1445313
		v18.0283203c0,7.7265625,3.4814453,11.5898438,10.4453125,11.5898438c4.578125,0,6.8681641-1.1679688,6.8681641-3.5058594
		c0-0.2861328-0.0966797-0.8583984-0.2861328-1.7167969C779.0449219,714.9951172,778.7822266,714.2080078,778.4492188,713.4931641z"
		/>
	<path class="st5" d="M806.5654297,682.5146484c-2.0507813,0-3.9472656,0.4541016-5.6875,1.359375
		c-1.7412109,0.9072266-3.2080078,2.0751953-4.3994141,3.5058594v-18.5292969c0-1.5263672-1.4316406-2.2900391-4.2929688-2.2900391
		h-2.0029297c-2.8623047,0-4.2929688,0.7636719-4.2929688,2.2900391v49.5068359
		c0,1.5273438,1.4306641,2.2900391,4.2929688,2.2900391h2.0029297c2.8613281,0,4.2929688-0.7626953,4.2929688-2.2900391v-22.9648438
		c0.5722656-1.0966797,1.3466797-2.0625,2.3242188-2.8974609c0.9775391-0.8339844,2.1113281-1.2519531,3.3984375-1.2519531
		c3.0517578,0,4.5791016,1.4785156,4.5791016,4.4355469v22.6787109c0,1.5273438,1.4306641,2.2900391,4.2919922,2.2900391h2.0039063
		c2.8613281,0,4.2919922-0.7626953,4.2919922-2.2900391v-24.2529297c0-3.9580078-0.8935547-6.8789063-2.6826172-8.7636719
		C812.8974609,683.4570313,810.1894531,682.5146484,806.5654297,682.5146484z"/>
	<path class="st5" d="M850.1328125,670.2099609h-2.5039063c-2.8613281,0-4.2919922,0.7861328-4.2919922,2.3603516v45.7871094
		c0,1.5742188,1.4306641,2.3613281,4.2919922,2.3613281h2.5039063c2.8623047,0,4.2929688-0.7871094,4.2929688-2.3613281v-45.7871094
		C854.4257813,670.9960938,852.9951172,670.2099609,850.1328125,670.2099609z"/>
	<path class="st5" d="M884.1152344,682.5146484c-2.1464844,0-4.1738281,0.5253906-6.0810547,1.5742188
		c-1.9082031,1.0498047-3.4335938,2.3369141-4.5791016,3.8632813c-0.0478516-0.2861328-0.1552734-0.8105469-0.3212891-1.5742188
		c-0.1679688-0.7617188-0.4179688-1.4667969-0.7509766-2.1103516c-0.3349609-0.6435547-0.9306641-0.9658203-1.7890625-0.9658203
		c-1.4785156,0-3.1835938,0.1914063-5.1152344,0.5722656c-1.9316406,0.3828125-2.8974609,0.9550781-2.8974609,1.7167969
		c0,0.3349609,0.0712891,0.8349609,0.2148438,1.5029297c0.1894531,1.3837891,0.3447266,2.6357422,0.4648438,3.7558594
		c0.1181641,1.1210938,0.1787109,2.7304688,0.1787109,4.8291016v22.6787109c0,1.5273438,1.4306641,2.2900391,4.2929688,2.2900391
		h2.0029297c2.8613281,0,4.2919922-0.7626953,4.2919922-2.2900391v-22.9648438
		c0.5732422-1.0966797,1.3476563-2.0625,2.3251953-2.8974609c0.9775391-0.8339844,2.1113281-1.2519531,3.3984375-1.2519531
		c1.5263672,0,2.6230469,0.3701172,3.2910156,1.1083984c0.6679688,0.7402344,1.0019531,1.8496094,1.0019531,3.3271484v22.6787109
		c0,1.5273438,1.4306641,2.2900391,4.2919922,2.2900391h2.0039063c2.8613281,0,4.2919922-0.7626953,4.2919922-2.2900391v-24.2529297
		c0-3.9580078-0.8583984-6.8789063-2.5751953-8.7636719C890.3398438,683.4570313,887.6923828,682.5146484,884.1152344,682.5146484z"
		/>
	<path class="st5" d="M935.0166016,712.9199219c-0.1201172-1.1445313-0.1787109-2.8134766-0.1787109-5.0078125v-39.0615234
		c0-1.5263672-1.4316406-2.2900391-4.2929688-2.2900391h-2.0029297c-2.8623047,0-4.2929688,0.7636719-4.2929688,2.2900391
		v15.8818359c-2.0507813-1.4775391-4.4833984-2.2177734-7.296875-2.2177734c-4.7705078,0-8.4785156,1.7294922-11.125,5.1875
		c-2.6474609,3.4580078-3.9707031,8.1445313-3.9707031,14.0576172c0,4.0546875,0.5722656,7.5361328,1.7167969,10.4453125
		c1.1445313,2.9101563,2.7294922,5.1152344,4.7578125,6.6171875c2.0263672,1.5029297,4.328125,2.2539063,6.9033203,2.2539063
		c2.1464844,0,4.0664063-0.5009766,5.7597656-1.5019531c1.6923828-1.0019531,2.96875-2.2900391,3.8271484-3.8632813
		c0.046875,0.2861328,0.1542969,0.8222656,0.3222656,1.609375c0.1660156,0.7871094,0.4169922,1.5273438,0.7509766,2.2177734
		c0.3330078,0.6923828,0.9296875,1.0371094,1.7890625,1.0371094c1.4775391,0,3.1835938-0.1894531,5.1152344-0.5722656
		c1.9316406-0.3808594,2.8974609-0.953125,2.8974609-1.7167969c0-0.4296875-0.0722656-0.953125-0.2148438-1.5742188
		C935.2900391,715.3291016,935.1347656,714.0654297,935.0166016,712.9199219z M924.2490234,708.1982422
		c-1.6220703,2.8154297-3.5771484,4.2216797-5.8662109,4.2216797c-3.8632813,0-5.7949219-3.5527344-5.7949219-10.6601563
		c0-7.2490234,2.2177734-10.8740234,6.6533203-10.8740234c1.7167969,0,3.3857422,0.453125,5.0078125,1.359375V708.1982422z"/>
	<path class="st5" d="M959.6621094,682.5146484c-5.6767578,0-9.9921875,1.6455078-12.9492188,4.9365234
		c-2.9580078,3.2910156-4.4355469,8.0605469-4.4355469,14.3085938c0,6.2490234,1.4775391,11.0302734,4.4355469,14.3447266
		c2.9570313,3.3154297,7.2724609,4.9716797,12.9492188,4.9716797c5.6748047,0,9.9804688-1.65625,12.9130859-4.9716797
		c2.9335938-3.3144531,4.4003906-8.0957031,4.4003906-14.3447266c0-6.2480469-1.4667969-11.0175781-4.4003906-14.3085938
		C969.6425781,684.1601563,965.3369141,682.5146484,959.6621094,682.5146484z M964.6337891,709.9511719
		c-1.0722656,1.8369141-2.7304688,2.7548828-4.9716797,2.7548828c-4.4355469,0-6.6533203-3.6494141-6.6533203-10.9462891
		c0-3.6240234,0.5478516-6.3427734,1.6455078-8.15625c1.0966797-1.8115234,2.765625-2.7177734,5.0078125-2.7177734
		c2.2412109,0,3.8994141,0.90625,4.9716797,2.7177734c1.0732422,1.8134766,1.6103516,4.5322266,1.6103516,8.15625
		C966.2441406,705.3847656,965.7070313,708.1162109,964.6337891,709.9511719z"/>
	<path class="st5" d="M1005.0898438,682.5146484c-2.1464844,0-4.1738281,0.5253906-6.0810547,1.5742188
		c-1.9082031,1.0498047-3.4335938,2.3369141-4.5791016,3.8632813c-0.0478516-0.2861328-0.1552734-0.8105469-0.3212891-1.5742188
		c-0.1679688-0.7617188-0.4179688-1.4667969-0.7509766-2.1103516c-0.3349609-0.6435547-0.9306641-0.9658203-1.7890625-0.9658203
		c-1.4785156,0-3.1835938,0.1914063-5.1152344,0.5722656c-1.9316406,0.3828125-2.8974609,0.9550781-2.8974609,1.7167969
		c0,0.3349609,0.0712891,0.8349609,0.2148438,1.5029297c0.1894531,1.3837891,0.3447266,2.6357422,0.4648438,3.7558594
		c0.1181641,1.1210938,0.1787109,2.7304688,0.1787109,4.8291016v22.6787109c0,1.5273438,1.4306641,2.2900391,4.2929688,2.2900391
		h2.0029297c2.8613281,0,4.2919922-0.7626953,4.2919922-2.2900391v-22.9648438
		c0.5732422-1.0966797,1.3476563-2.0625,2.3251953-2.8974609c0.9775391-0.8339844,2.1113281-1.2519531,3.3984375-1.2519531
		c1.5263672,0,2.6230469,0.3701172,3.2910156,1.1083984c0.6679688,0.7402344,1.0019531,1.8496094,1.0019531,3.3271484v22.6787109
		c0,1.5273438,1.4306641,2.2900391,4.2919922,2.2900391h2.0039063c2.8613281,0,4.2919922-0.7626953,4.2919922-2.2900391v-24.2529297
		c0-3.9580078-0.8583984-6.8789063-2.5751953-8.7636719
		C1011.3144531,683.4570313,1008.6669922,682.5146484,1005.0898438,682.5146484z"/>
	<path class="st5" d="M1054.203125,703.5126953c0.9775391-1.1201172,1.4667969-1.9677734,1.4667969-2.5400391
		c0-5.4375-1.2519531-9.8730469-3.7558594-13.3066406c-2.5039063-3.4345703-6.4033203-5.1513672-11.6972656-5.1513672
		c-5.4375,0-9.6943359,1.5742188-12.7705078,4.7216797c-3.0761719,3.1484375-4.6142578,8.0849609-4.6142578,14.8095703
		c0,5.9628906,1.5380859,10.6240234,4.6142578,13.9863281s7.7626953,5.0439453,14.0585938,5.0439453
		c1.5253906,0,3.3144531-0.1914063,5.3652344-0.5722656c2.0498047-0.3808594,3.8154297-0.9658203,5.2939453-1.7529297
		s2.2177734-1.7285156,2.2177734-2.8261719c0-0.4755859-0.203125-1.1552734-0.6074219-2.0380859
		c-0.40625-0.8828125-0.9072266-1.6699219-1.5029297-2.3613281c-0.5966797-0.6904297-1.1337891-1.0371094-1.609375-1.0371094
		c-0.2861328,0-0.8115234,0.1904297-1.5742188,0.5722656c-1.1923828,0.4775391-2.3369141,0.8701172-3.4335938,1.1806641
		c-1.0976563,0.3105469-2.3144531,0.4648438-3.6494141,0.4648438c-2.4804688,0-4.4121094-0.5722656-5.7949219-1.7177734
		c-1.3837891-1.1445313-2.1943359-3.0761719-2.4316406-5.7949219h18.2431641
		C1052.4970703,705.1933594,1053.2255859,704.6337891,1054.203125,703.5126953z M1033.7783203,698.1113281
		c0.7617188-4.8173828,2.9082031-7.2255859,6.4384766-7.2255859c1.7167969,0,3.0048828,0.65625,3.8632813,1.9667969
		c0.8583984,1.3125,1.2880859,3.0654297,1.2880859,5.2587891H1033.7783203z"/>
	<path class="st5" d="M1077.7041016,697.8964844c-2.2421875-0.8105469-3.7919922-1.4902344-4.6503906-2.0390625
		c-0.8583984-0.5478516-1.2871094-1.3466797-1.2871094-2.3964844c0-1.7636719,1.2626953-2.6474609,3.7910156-2.6474609
		c1.5742188,0,2.9804688,0.2509766,4.2216797,0.7519531c1.2392578,0.5,1.9550781,0.7509766,2.1455078,0.7509766
		c0.6201172,0,1.2880859-0.7158203,2.0039063-2.1464844c0.7148438-1.4306641,1.0732422-2.5986328,1.0732422-3.5058594
		c0-1.3339844-1.1572266-2.3603516-3.4707031-3.0761719c-2.3134766-0.7148438-4.7333984-1.0732422-7.2607422-1.0732422
		c-4.0068359,0-7.1796875,1.0371094-9.515625,3.1123047c-2.3369141,2.0751953-3.5058594,4.9492188-3.5058594,8.6210938
		c0,2.2421875,0.4404297,4.0898438,1.3242188,5.5439453c0.8818359,1.4560547,1.9189453,2.5527344,3.1113281,3.2910156
		c1.1923828,0.7402344,2.6230469,1.4667969,4.2929688,2.1826172c2.2412109,0.9541016,3.7675781,1.6933594,4.5791016,2.2177734
		c0.8105469,0.5253906,1.2158203,1.2636719,1.2158203,2.2177734s-0.3701172,1.6933594-1.1083984,2.2177734
		c-0.7402344,0.5253906-1.8251953,0.7871094-3.2558594,0.7871094c-1.0976563,0-2.0634766-0.1308594-2.8974609-0.3935547
		c-0.8349609-0.2617188-1.7529297-0.6083984-2.7539063-1.0371094c-0.6689453-0.3818359-1.1933594-0.5732422-1.5742188-0.5732422
		c-0.7158203,0-1.5273438,0.6796875-2.4326172,2.0390625c-0.90625,1.359375-1.359375,2.5166016-1.359375,3.4697266
		c0,1.4316406,1.2402344,2.6005859,3.7207031,3.5058594c2.4794922,0.9052734,5.1982422,1.359375,8.1552734,1.359375
		c4.3876953,0,7.8222656-1.1083984,10.3027344-3.3261719c2.4794922-2.21875,3.7197266-5.1875,3.7197266-8.9072266
		c0-3.1953125-0.8115234-5.5917969-2.4326172-7.1904297C1082.234375,700.0546875,1080.1835938,698.8027344,1077.7041016,697.8964844
		z"/>
	<path class="st5" d="M1097.4501953,669.2792969c-3.5302734,0-5.2949219,0.7636719-5.2949219,2.2900391v5.5800781
		c0,1.5263672,1.7646484,2.2890625,5.2949219,2.2890625c3.5283203,0,5.2939453-0.7626953,5.2939453-2.2890625v-5.5800781
		C1102.7441406,670.0429688,1100.9785156,669.2792969,1097.4501953,669.2792969z"/>
	<path class="st5" d="M1098.4511719,682.9443359h-2.0029297c-2.8623047,0-4.2929688,0.7636719-4.2929688,2.2890625v33.1240234
		c0,1.5273438,1.4306641,2.2900391,4.2929688,2.2900391h2.0029297c2.8623047,0,4.2929688-0.7626953,4.2929688-2.2900391v-33.1240234
		C1102.7441406,683.7080078,1101.3134766,682.9443359,1098.4511719,682.9443359z"/>
	<path class="st5" d="M1141.6630859,716.7119141c-0.1914063-1.3828125-0.3466797-2.6464844-0.4648438-3.7919922
		c-0.1201172-1.1445313-0.1787109-2.8134766-0.1787109-5.0078125v-13.4492188c0-3.7207031-1.2167969-6.6416016-3.6484375-8.7646484
		c-2.4326172-2.1210938-6.3447266-3.1835938-11.7333984-3.1835938c-2.5283203,0-4.8417969,0.2392578-6.9394531,0.7158203
		c-2.0996094,0.4775391-3.7451172,1.0976563-4.9365234,1.8603516c-1.1923828,0.7626953-1.7890625,1.5498047-1.7890625,2.3603516
		c0,0.5253906,0.2148438,1.2519531,0.6445313,2.1826172c0.4287109,0.9296875,0.9296875,1.7519531,1.5019531,2.4677734
		s1.0966797,1.0732422,1.5742188,1.0732422c0.1425781,0,0.6904297-0.2148438,1.6455078-0.6435547
		c0.953125-0.4296875,2.0390625-0.8105469,3.2548828-1.1455078c1.2167969-0.3330078,2.6347656-0.5,4.2568359-0.5
		c1.9550781,0,3.3740234,0.3339844,4.2568359,1.0009766c0.8818359,0.6689453,1.3232422,1.6933594,1.3232422,3.0761719v2.3613281
		c-8.1083984,0-13.5566406,1.2646484-16.3466797,3.7919922c-2.7910156,2.5283203-4.1855469,5.6992188-4.1855469,9.5146484
		c0,3.1484375,0.8457031,5.6767578,2.5400391,7.5839844c1.6923828,1.9082031,4.375,2.8613281,8.0478516,2.8613281
		c1.9550781,0,3.6962891-0.3574219,5.2226563-1.0732422c1.5263672-0.7148438,2.71875-1.4902344,3.5771484-2.3251953
		c0.8583984-0.8339844,1.4306641-1.5136719,1.7167969-2.0390625c0.0478516,0.2861328,0.1542969,0.8349609,0.3222656,1.6455078
		c0.1669922,0.8115234,0.4169922,1.5634766,0.7509766,2.2539063c0.3330078,0.6923828,0.9306641,1.0371094,1.7890625,1.0371094
		c1.4775391,0,3.1835938-0.1894531,5.1152344-0.5722656c1.9316406-0.3808594,2.8974609-0.953125,2.8974609-1.7167969
		C1141.8779297,717.8564453,1141.8066406,717.3330078,1141.6630859,716.7119141z M1130.4306641,708.1982422
		c-0.5722656,1.2880859-1.4550781,2.3613281-2.6464844,3.2197266c-1.1933594,0.8583984-2.4570313,1.2880859-3.7919922,1.2880859
		c-1.1445313,0-2.0273438-0.2861328-2.6474609-0.8583984s-0.9296875-1.3349609-0.9296875-2.2900391
		c0-3.5283203,3.3378906-5.2939453,10.015625-5.2939453V708.1982422z"/>
</g>
<g id="text_1" class="st0">
	<path class="st1" d="M99.4960938,581.84375l25.8173828-39.5966797c0.7128906-1.0693359,1.0703125-2.0058594,1.0703125-2.8085938
		c0-1.3378906-2.4980469-2.0068359-7.4912109-2.0068359h-6.2871094c-4.3706055,0-7.0458984,0.8486328-8.0263672,2.5419922
		l-23.2758789,37.7226563L80.7680664,577.5625v-35.8496094c0-2.8535156-2.675293-4.28125-8.0263672-4.28125h-4.6816406
		c-5.3510742,0-8.0263672,1.4277344-8.0263672,4.28125v85.6123047c0,2.8554688,2.675293,4.2802734,8.0263672,4.2802734h4.6816406
		c5.3510742,0,8.0263672-1.4248047,8.0263672-4.2802734v-38.7929688l0.5351563-0.1337891l25.1484375,40.6660156
		c0.9804688,1.6943359,3.699707,2.5410156,8.1601563,2.5410156h7.7587891c4.9931641,0,7.4912109-0.6689453,7.4912109-2.0058594
		c0-0.8027344-0.3574219-1.7392578-1.0703125-2.8095703L99.4960938,581.84375z"/>
	<path class="st1" d="M206.777832,537.4316406h-3.8793945c-5.3510742,0-8.0263672,1.4277344-8.0263672,4.28125v44.4111328
		c0,4.0126953,0.0878906,7.0458984,0.2675781,9.0966797l-0.5351563,0.1337891
		c-1.4277344-2.6757813-3.0327148-5.3056641-4.8154297-7.8925781l-30.0981445-46.4179688
		c-0.8925781-1.4257813-2.0527344-2.3847656-3.4780273-2.8759766c-1.4277344-0.4892578-3.2104492-0.7363281-5.3510742-0.7363281
		h-5.7519531c-5.3510742,0-8.0263672,1.4277344-8.0263672,4.28125v85.6123047c0,2.8554688,2.675293,4.2802734,8.0263672,4.2802734
		h3.8793945c5.3505859,0,8.0258789-1.4248047,8.0258789-4.2802734v-45.0800781c0-4.0136719-0.0898438-7.0439453-0.2675781-9.0966797
		l0.5351563-0.1337891c1.4257813,2.6757813,3.0307617,5.3066406,4.815918,7.8925781l30.7670898,47.0869141
		c0.8901367,1.4277344,2.050293,2.3867188,3.4780273,2.8759766c1.425293,0.4892578,3.2104492,0.7353516,5.3505859,0.7353516
		h5.0834961c5.3505859,0,8.0258789-1.4248047,8.0258789-4.2802734v-85.6123047
		C214.8037109,538.859375,212.128418,537.4316406,206.777832,537.4316406z"/>
	<path class="st1" d="M272.9926758,536.6289063c-13.8242188,0-24.4355469,4.1259766-31.8369141,12.3740234
		c-7.4033203,8.25-11.1030273,20.0888672-11.1030273,35.515625c0,15.4296875,3.699707,27.2685547,11.1030273,35.515625
		c7.4013672,8.25,18.0126953,12.3740234,31.8369141,12.3740234c13.8222656,0,24.4130859-4.1240234,31.7705078-12.3740234
		c7.3574219-8.2470703,11.0361328-20.0859375,11.0361328-35.515625c0-15.4267578-3.6787109-27.265625-11.0361328-35.515625
		C297.4057617,540.7548828,286.8149414,536.6289063,272.9926758,536.6289063z M289.1791992,607.1259766
		c-3.6577148,5.1728516-9.0527344,7.7587891-16.1865234,7.7587891c-7.1357422,0-12.5532227-2.5859375-16.2529297-7.7587891
		c-3.7016602-5.1708984-5.5512695-12.7080078-5.5512695-22.6074219c0-9.8984375,1.8496094-17.4111328,5.5512695-22.5400391
		c3.699707-5.1269531,9.1171875-7.6914063,16.2529297-7.6914063c7.1337891,0,12.5288086,2.5644531,16.1865234,7.6914063
		c3.6552734,5.1289063,5.484375,12.6416016,5.484375,22.5400391
		C294.6635742,594.4179688,292.8344727,601.9550781,289.1791992,607.1259766z"/>
	<path class="st1" d="M432.5791016,537.4316406h-1.4716797c-5.3505859,0-8.3398438,1.3837891-8.9624023,4.1474609
		l-10.300293,42.8056641c-0.9824219,4.1035156-1.8959961,8.6074219-2.7421875,13.5107422
		c-0.8486328,4.90625-1.4506836,9.0087891-1.8061523,12.3066406h-0.5351563
		c-0.1796875-2.8525391-0.668457-6.7089844-1.4711914-11.5703125c-0.8027344-4.8603516-1.6953125-9.5185547-2.675293-13.9794922
		l-10.5678711-44.4111328c-0.2675781-1.0703125-1.003418-1.8056641-2.2075195-2.2070313
		c-1.2036133-0.4013672-2.921875-0.6025391-5.1499023-0.6025391h-5.0834961c-2.2299805,0-3.9458008,0.2011719-5.1499023,0.6025391
		s-1.9394531,1.1367188-2.2070313,2.2070313l-10.9692383,44.2773438c-0.8027344,3.1230469-1.6513672,7.1357422-2.5415039,12.0390625
		c-0.8925781,4.90625-1.6054688,9.4541016-2.140625,13.6445313H356.0625
		c-0.1796875-3.6552734-0.6015625-7.9130859-1.2705078-12.7744141c-0.6689453-4.859375-1.4047852-9.1171875-2.2075195-12.7753906
		l-10.0327148-43.0732422c-0.6245117-2.7636719-3.6113281-4.1474609-8.9624023-4.1474609h-3.4780273
		c-5.5302734,0-8.293457,1.1601563-8.293457,3.4785156c0,0.2675781,0.0874023,0.9365234,0.2675781,2.0058594l21.0014648,85.2119141
		c0.3554688,1.25,1.137207,2.1396484,2.3413086,2.6748047c1.2036133,0.5351563,2.9199219,0.8027344,5.1499023,0.8027344h9.6313477
		c4.4584961,0,7-1.2041016,7.625-3.6113281l10.1665039-41.7363281c0.5351563-2.3183594,1.5151367-7.9365234,2.9428711-16.8554688
		h0.5351563l2.809082,16.8554688l9.8989258,41.8701172c0.4453125,2.3193359,2.9428711,3.4775391,7.4912109,3.4775391h9.7651367
		c4.4584961,0,7-1.1582031,7.625-3.4775391l21.5366211-85.2119141c0.1777344-0.5351563,0.2675781-1.203125,0.2675781-2.0058594
		C440.8725586,538.5917969,438.1074219,537.4316406,432.5791016,537.4316406z"/>
	<path class="st1" d="M501.8701172,613.8144531h-28.894043v-72.1015625c0-2.8535156-2.675293-4.28125-8.0263672-4.28125h-4.5478516
		c-5.3510742,0-8.0263672,1.4277344-8.0263672,4.28125v84.2744141c0,1.8730469,0.4223633,3.2333984,1.2709961,4.0800781
		c0.8461914,0.8486328,2.2070313,1.2705078,4.0795898,1.2705078h44.144043c1.4257813,0,2.4516602-0.5351563,3.0766602-1.6054688
		c0.6230469-1.0693359,0.9365234-2.7626953,0.9365234-5.0830078v-4.1464844c0-2.3183594-0.3134766-4.0136719-0.9365234-5.0830078
		C504.3217773,614.3496094,503.2958984,613.8144531,501.8701172,613.8144531z"/>
	<path class="st1" d="M567.0166016,613.8144531h-31.8369141v-21.6708984h28.0913086
		c1.4257813,0,2.4521484-0.5351563,3.0771484-1.6054688c0.6225586-1.0703125,0.9360352-2.7626953,0.9360352-5.0830078v-4.1464844
		c0-2.3183594-0.3134766-4.0136719-0.9360352-5.0839844c-0.625-1.0693359-1.6513672-1.6044922-3.0771484-1.6044922h-28.0913086
		v-19.3964844h31.703125c1.4257813,0,2.4521484-0.5351563,3.0766602-1.6054688
		c0.6230469-1.0703125,0.9365234-2.7636719,0.9365234-5.0830078v-4.1474609c0-2.3173828-0.3134766-4.0126953-0.9365234-5.0830078
		c-0.6245117-1.0703125-1.6508789-1.6054688-3.0766602-1.6054688h-46.953125c-1.8725586,0-3.2333984,0.4248047-4.0795898,1.2705078
		c-0.8486328,0.8486328-1.2709961,2.2080078-1.2709961,4.0800781v82.9375c0,1.8730469,0.4223633,3.2333984,1.2709961,4.0800781
		c0.8461914,0.8486328,2.2070313,1.2705078,4.0795898,1.2705078h47.0869141c1.4257813,0,2.4521484-0.5351563,3.0766602-1.6054688
		c0.6230469-1.0693359,0.9365234-2.7626953,0.9365234-5.0830078v-4.1464844c0-2.3183594-0.3134766-4.0136719-0.9365234-5.0830078
		C569.46875,614.3496094,568.4423828,613.8144531,567.0166016,613.8144531z"/>
	<path class="st1" d="M621.4589844,537.6992188h-28.6264648c-1.8725586,0-3.2333984,0.4248047-4.0795898,1.2705078
		c-0.8486328,0.8486328-1.2709961,2.2080078-1.2709961,4.0800781v82.9375c0,1.8730469,0.4223633,3.2333984,1.2709961,4.0800781
		c0.8461914,0.8486328,2.2070313,1.2705078,4.0795898,1.2705078h28.6264648
		c13.8222656,0,24.4130859-4.0341797,31.7705078-12.1054688c7.3574219-8.0703125,11.0361328-19.6416016,11.0361328-34.7138672
		c0-15.0693359-3.6787109-26.640625-11.0361328-34.7128906C645.8720703,541.7353516,635.28125,537.6992188,621.4589844,537.6992188z
		 M637.6455078,606.3232422c-3.6582031,4.9951172-9.0527344,7.4912109-16.1865234,7.4912109h-13.2431641v-58.5908203h13.2431641
		c7.1337891,0,12.5283203,2.4970703,16.1865234,7.4902344c3.6552734,4.9960938,5.484375,12.2636719,5.484375,21.8046875
		C643.1298828,594.0625,641.3007813,601.3300781,637.6455078,606.3232422z"/>
	<path class="st1" d="M746.1318359,579.3017578h-27.1552734c-1.4277344,0-2.4541016,0.5351563-3.0771484,1.6054688
		c-0.625,1.0703125-0.9365234,2.7646484-0.9365234,5.0830078v4.2802734c0,2.3203125,0.3115234,4.0136719,0.9365234,5.0839844
		c0.6230469,1.0693359,1.6494141,1.6044922,3.0771484,1.6044922h11.7714844v16.9892578
		c-3.390625,0.625-6.8681641,0.9365234-10.4335938,0.9365234c-15.25,0-22.875-10.1669922-22.875-30.5
		c0-10.0761719,1.8935547-17.6113281,5.6855469-22.6064453c3.7890625-4.9941406,9.6083984-7.4912109,17.4570313-7.4912109
		c3.7451172,0,7.0224609,0.3134766,9.8320313,0.9365234c2.8085938,0.625,5.1933594,1.3369141,7.15625,2.1396484
		c1.9609375,0.8027344,3.0771484,1.2041016,3.3447266,1.2041016c1.0693359,0,2.2949219-0.7792969,3.6777344-2.3408203
		c1.3818359-1.5595703,2.5625-3.3447266,3.5449219-5.3505859c0.9804688-2.0068359,1.4716797-3.6328125,1.4716797-4.8828125
		c0-1.7832031-1.5175781-3.3886719-4.5478516-4.8154297c-3.0332031-1.4257813-6.7783203-2.5419922-11.2363281-3.3447266
		c-4.4609375-0.8027344-8.7412109-1.2041016-12.8427734-1.2041016c-29.7861328,0-44.6787109,15.875-44.6787109,47.6220703
		c0,16.5,3.5888672,28.6503906,10.7685547,36.4521484c7.1777344,7.8046875,18.2597656,11.7050781,33.2421875,11.7050781
		c7.4003906,0,14.4462891-0.7587891,21.1347656-2.2744141c6.6884766-1.5146484,10.0332031-4.2802734,10.0332031-8.2929688
		v-37.1884766c0-1.8730469-0.4248047-3.2314453-1.2705078-4.0800781
		C749.3632813,579.7255859,748.0039063,579.3017578,746.1318359,579.3017578z"/>
	<path class="st1" d="M822.9160156,613.8144531H791.078125v-21.6708984h28.0917969
		c1.4257813,0,2.4521484-0.5351563,3.0771484-1.6054688c0.6230469-1.0703125,0.9365234-2.7626953,0.9365234-5.0830078v-4.1464844
		c0-2.3183594-0.3134766-4.0136719-0.9365234-5.0839844c-0.625-1.0693359-1.6513672-1.6044922-3.0771484-1.6044922H791.078125
		v-19.3964844h31.7041016c1.4248047,0,2.4511719-0.5351563,3.0761719-1.6054688
		c0.6230469-1.0703125,0.9365234-2.7636719,0.9365234-5.0830078v-4.1474609c0-2.3173828-0.3134766-4.0126953-0.9365234-5.0830078
		c-0.625-1.0703125-1.6513672-1.6054688-3.0761719-1.6054688h-46.953125c-1.8730469,0-3.2333984,0.4248047-4.0800781,1.2705078
		c-0.8486328,0.8486328-1.2714844,2.2080078-1.2714844,4.0800781v82.9375c0,1.8730469,0.4228516,3.2333984,1.2714844,4.0800781
		c0.8466797,0.8486328,2.2070313,1.2705078,4.0800781,1.2705078h47.0869141c1.4248047,0,2.4511719-0.5351563,3.0761719-1.6054688
		c0.6230469-1.0693359,0.9365234-2.7626953,0.9365234-5.0830078v-4.1464844c0-2.3183594-0.3134766-4.0136719-0.9365234-5.0830078
		C825.3671875,614.3496094,824.3408203,613.8144531,822.9160156,613.8144531z"/>
	<path class="st1" d="M945.1777344,537.4316406h-4.6816406c-5.3505859,0-8.0263672,1.4277344-8.0263672,4.28125v33.0410156
		h-36.1181641v-33.0410156c0-2.8535156-2.6748047-4.28125-8.0253906-4.28125h-4.6826172
		c-5.3505859,0-8.0263672,1.4277344-8.0263672,4.28125v85.6123047c0,2.8554688,2.6757813,4.2802734,8.0263672,4.2802734h4.6826172
		c5.3505859,0,8.0253906-1.4248047,8.0253906-4.2802734v-34.9140625h36.1181641v34.9140625
		c0,2.8554688,2.6757813,4.2802734,8.0263672,4.2802734h4.6816406c5.3505859,0,8.0263672-1.4248047,8.0263672-4.2802734v-85.6123047
		C953.2041016,538.859375,950.5283203,537.4316406,945.1777344,537.4316406z"/>
	<path class="st1" d="M1041.7578125,537.4316406h-4.4140625c-5.3505859,0-8.0263672,1.4277344-8.0263672,4.28125v56.9853516
		c0,4.7275391-1.7177734,8.6074219-5.1503906,11.6376953c-3.4335938,3.0332031-7.8251953,4.5488281-13.1757813,4.5488281
		s-9.7216797-1.515625-13.109375-4.5488281c-3.390625-3.0302734-5.0830078-6.9101563-5.0830078-11.6376953v-56.9853516
		c0-2.8535156-2.6757813-4.28125-8.0263672-4.28125h-4.5488281c-5.3505859,0-8.0253906,1.4277344-8.0253906,4.28125v58.3232422
		c0,10.2558594,3.3876953,18.2158203,10.1660156,23.8779297c6.7763672,5.6640625,16.3203125,8.4941406,28.6269531,8.4941406
		s21.8486328-2.8300781,28.6269531-8.4941406c6.7763672-5.6621094,10.1660156-13.6220703,10.1660156-23.8779297v-58.3232422
		C1049.7841797,538.859375,1047.109375,537.4316406,1041.7578125,537.4316406z"/>
	<path class="st1" d="M1130.8466797,590.1367188c-3.3896484-4.1904297-7.7148438-6.8222656-12.9755859-7.8916016
		l-0.1337891-0.5351563c4.1914063-1.6933594,7.6455078-4.3916016,10.3671875-8.09375
		c2.7197266-3.6992188,4.0800781-7.7792969,4.0800781-12.2392578c0-7.4013672-2.5419922-13.1972656-7.625-17.390625
		c-5.0830078-4.1904297-13.0654297-6.2871094-23.9443359-6.2871094h-26.4863281
		c-1.8730469,0-3.2333984,0.4248047-4.0800781,1.2705078c-0.8486328,0.8486328-1.2714844,2.2080078-1.2714844,4.0800781v82.9375
		c0,1.8730469,0.4228516,3.2333984,1.2714844,4.0800781c0.8466797,0.8486328,2.2070313,1.2705078,4.0800781,1.2705078h28.3583984
		c11.1474609,0,19.5078125-2.3408203,25.0820313-7.0224609c5.5722656-4.6826172,8.3613281-11.3916016,8.3613281-20.1328125
		C1135.9306641,599.0117188,1134.2353516,594.3300781,1130.8466797,590.1367188z M1089.3779297,555.0898438h9.4980469
		c8.1142578,0,12.1728516,3.2998047,12.1728516,9.8984375c0,2.9433594-1.0927734,5.3505859-3.2773438,7.2236328
		c-2.1865234,1.8730469-5.2402344,2.8095703-9.1630859,2.8095703h-9.2304688V555.0898438z M1111.5839844,611.0048828
		c-2.140625,1.8730469-5.1728516,2.8095703-9.0966797,2.8095703h-13.109375v-21.2695313h10.9697266
		c4.6357422,0,8.2041016,0.8691406,10.7011719,2.6083984c2.4960938,1.7392578,3.7460938,4.3476563,3.7460938,7.8251953
		C1114.7949219,606.4570313,1113.7246094,609.1328125,1111.5839844,611.0048828z"/>
</g>
</svg>
